<?xml version="1.0" encoding="UTF-8"?>
<svg width="24px" height="24px" viewBox="0 0 24 24" version="1.1" xmlns="http://www.w3.org/2000/svg" xmlns:xlink="http://www.w3.org/1999/xlink">
    <title>store/24 M</title>
    <defs>
        <filter id="filter-1">
            <feColorMatrix in="SourceGraphic" type="matrix" values="0 0 0 0 0.000000 0 0 0 0 0.000000 0 0 0 0 0.000000 0 0 0 1.000000 0"></feColorMatrix>
        </filter>
    </defs>
    <g id="Page-1" stroke="none" stroke-width="1" fill="none" fill-rule="evenodd">
        <g id="Desktop-HD" transform="translate(-170.000000, -2036.000000)">
            <g id="store" transform="translate(170.000000, 2036.000000)" filter="url(#filter-1)">
                <g>
                    <path d="M21.6000513,8.4 L20.92,3.6 L3.08,3.6 L2.39994816,8.4 C2.39271416,9.65652351 3.15402649,10.7898876 4.32,11.2583 L4.32,20.4 L19.68,20.4 L19.68,11.2582 C20.8459394,10.789801 21.6072447,9.65648712 21.6000513,8.4 Z M15.72,9.49 C15.3378814,9.95545885 14.7691952,10.2277239 14.1670049,10.2335142 C13.5648147,10.2393045 12.9909983,9.97802503 12.6,9.52 L12.6,4.8 L15.72,4.8 L15.72,9.49 Z M8.2805,4.8 L11.4,4.8 L11.4,9.5244 C11.0302085,10.0171396 10.4479603,10.3044413 9.8319259,10.2981427 C9.21589153,10.2918442 8.63963931,9.99269755 8.28,9.4925 L8.2805,4.8 Z M3.5941,8.485 L4.12,4.8 L7.08,4.8 L7.08,9.5561 C6.71269497,10.0218871 6.15317947,10.2949454 5.56,10.2979 C4.51924502,10.3327573 3.64349719,9.52516627 3.5941,8.485 L3.5941,8.485 Z M10.32,19.2 L10.32,15.84 L13.68,15.84 L13.68,19.2 L10.32,19.2 Z M18.48,19.2 L14.88,19.2 L14.88,14.64 L9.12,14.64 L9.12,19.2 L5.52,19.2 L5.52,11.494 C5.5339,11.494 5.5466,11.4979 5.5605,11.4979 C6.35612847,11.4994921 7.12297441,11.2003833 7.7074,10.6605 C8.93957878,11.7270779 10.7680697,11.726865 12,10.66 C13.2317655,11.7274967 15.0608345,11.7274967 16.2926,10.66 C16.876501,11.2000138 17.6429678,11.4993206 18.4383,11.4979 C18.4526,11.4979 18.4657,11.494 18.48,11.4938 L18.48,19.2 Z M18.4383,10.2979 C17.8456288,10.2948098 17.2866884,10.0217268 16.92,9.5561 L16.92,4.8 L19.88,4.8 L20.4,8.44 C20.3710664,9.49463285 19.4929477,10.3262874 18.4383,10.2979 L18.4383,10.2979 Z" id="Shape" fill="#000000" fill-rule="nonzero"></path>
                    <rect id="Rectangle" x="0" y="0" width="24" height="24"></rect>
                </g>
            </g>
        </g>
    </g>
</svg>