<svg xmlns="http://www.w3.org/2000/svg" width="24" height="24" viewBox="0 0 24 24">
    <defs>
        <filter id="qtarbvn1pa">
            <feColorMatrix in="SourceGraphic" values="0 0 0 0 0.000000 0 0 0 0 0.000000 0 0 0 0 0.000000 0 0 0 1.000000 0"/>
        </filter>
    </defs>
    <g fill="none" fill-rule="evenodd">
        <g>
            <g filter="url(#qtarbvn1pa)" transform="translate(-902 -281) translate(902 281)">
                <path fill="#000" fill-rule="nonzero" d="M16.8 20.4L2.4 20.4 2.4 6 9.6 6 9.6 7.2 3.6 7.2 3.6 19.2 15.6 19.2 15.6 16.8 16.8 16.8z"/>
                <path d="M0 0H24V24H0z"/>
                <path fill="#000" fill-rule="nonzero" d="M8.4 14.4H7.2v-.6c0-3 2.4-5.4 5.4-5.4h8.64v1.2H12.6c-2.28 0-4.2 1.92-4.2 4.2v.6z"/>
                <path fill="#000" fill-rule="nonzero" d="M16.68 14.52L15.72 13.68 20.4 9 15.72 4.32 16.68 3.48 22.08 9z"/>
            </g>
        </g>
    </g>
</svg>
