<?xml version="1.0" encoding="UTF-8"?>
<svg width="24px" height="24px" viewBox="0 0 24 24" version="1.1" xmlns="http://www.w3.org/2000/svg" xmlns:xlink="http://www.w3.org/1999/xlink">
    <title>03. tokens/Icon/m/type : rectangle_1x2_with_list</title>
    <g id="03.-tokens/Icon/m/type-:-rectangle_1x2_with_list" stroke="none" stroke-width="1" fill="none" fill-rule="evenodd">
        <polygon id="background" transform="translate(12.000000, 12.000000) rotate(-90.000000) translate(-12.000000, -12.000000) " points="-7.10542736e-15 1.46957616e-15 24 1.46957616e-15 24 24 -7.10542736e-15 24"></polygon>
        <path d="M20.4,19.2 L20.4,20.4 L13.5,20.4 L13.5,19.2 L20.4,19.2 Z M10.8,13.2 L10.8,20.4 L3.6,20.4 L3.6,13.2 L10.8,13.2 Z M20.4,16.2 L20.4,17.4 L13.5,17.4 L13.5,16.2 L20.4,16.2 Z M20.4,13.2 L20.4,14.4 L13.5,14.4 L13.5,13.2 L20.4,13.2 Z M20.4,9.6 L20.4,10.8 L13.5,10.8 L13.5,9.6 L20.4,9.6 Z M10.8,3.6 L10.8,10.8 L3.6,10.8 L3.6,3.6 L10.8,3.6 Z M20.4,6.6 L20.4,7.8 L13.5,7.8 L13.5,6.6 L20.4,6.6 Z M20.4,3.6 L20.4,4.8 L13.5,4.8 L13.5,3.6 L20.4,3.6 Z" id="Combined-Shape" fill="#000000" fill-rule="nonzero"></path>
    </g>
</svg>