<?xml version="1.0" encoding="utf-8"?>
<!-- Generator: Adobe Illustrator 25.1.0, SVG Export Plug-In . SVG Version: 6.00 Build 0)  -->
<svg version="1.1" id="레이어_1" xmlns="http://www.w3.org/2000/svg" xmlns:xlink="http://www.w3.org/1999/xlink" x="0px"
	 y="0px" viewBox="0 0 24 24" style="enable-background:new 0 0 24 24;" xml:space="preserve">
<style type="text/css">
	.st0{fill:none;}
</style>
<path class="st0" d="M0,0h24v24H0V0z"/>
<path d="M8.4,21.6c-1.3,0-2.4-1.1-2.4-2.4s1.1-2.4,2.4-2.4s2.4,1.1,2.4,2.4C10.8,20.5,9.7,21.6,8.4,21.6z M8.4,18
	c-0.7,0-1.2,0.5-1.2,1.2s0.5,1.2,1.2,1.2s1.2-0.5,1.2-1.2C9.6,18.5,9.1,18,8.4,18z"/>
<path d="M18,21.6c-1.3,0-2.4-1.1-2.4-2.4s1.1-2.4,2.4-2.4s2.4,1.1,2.4,2.4S19.3,21.6,18,21.6z M18,18c-0.7,0-1.2,0.5-1.2,1.2
	s0.5,1.2,1.2,1.2s1.2-0.5,1.2-1.2S18.7,18,18,18z"/>
<path d="M19.1,15.6H7.3L4.1,4.8H1.2V3.6H5l3.2,10.8H18l2.3-7.3l1.2,0.2L19.1,15.6z"/>
<polygon points="12.8,11.9 8.1,7.3 9.1,6.4 12.8,10.2 20.1,2.8 21.1,3.7 "/>
</svg>
