<?xml version="1.0" encoding="UTF-8"?>
<svg width="24px" height="24px" viewBox="0 0 24 24" version="1.1" xmlns="http://www.w3.org/2000/svg" xmlns:xlink="http://www.w3.org/1999/xlink">
    <title>03. tokens/Icon/m/type : imark_triangle</title>
    <g id="03.-tokens/Icon/m/type-:-imark_triangle" stroke="none" stroke-width="1" fill="none" fill-rule="evenodd">
        <rect id="background" x="0" y="0" width="24" height="24"></rect>
        <path d="M12,4.0518495 C12.5507511,4.0518495 13.061177,4.34061857 13.3468911,4.81609593 L13.3468911,4.81609593 L20.9276723,17.5837277 C21.215515,18.0678854 21.2211716,18.6693274 20.9424862,19.1588133 C20.6638009,19.6482991 20.1437121,19.9504114 19.581,19.9500006 L19.581,19.9500006 L4.41954773,19.9500006 C3.85628791,19.9504114 3.33619912,19.6482991 3.0575138,19.1588133 C2.77882839,18.6693274 2.78448503,18.0678854 3.07210894,17.5840959 L3.07210894,17.5840959 L10.6551429,4.81269093 C10.938823,4.34061857 11.4492489,4.0518495 12,4.0518495 Z M12,5.5518495 C11.9757796,5.5518495 11.9533326,5.56454871 11.9428911,5.58190407 L11.9428911,5.58190407 L4.3616723,18.3502723 C4.349541,18.3706774 4.3493026,18.3960255 4.36104796,18.4166552 C4.37279337,18.4372849 4.39471303,18.4500004 4.419,18.4500004 L4.419,18.4500004 L19.5815477,18.4500004 C19.605287,18.4500004 19.6272066,18.4372849 19.638952,18.4166552 C19.6506974,18.3960255 19.650459,18.3706774 19.6381089,18.3499041 L19.6381089,18.3499041 L12.0591429,5.58530907 C12.0466674,5.56454871 12.0242204,5.5518495 12,5.5518495 Z M12,15.3 C12.4970563,15.3 12.9,15.7029437 12.9,16.2 C12.9,16.6970563 12.4970563,17.1 12,17.1 C11.5029437,17.1 11.1,16.6970563 11.1,16.2 C11.1,15.7029437 11.5029437,15.3 12,15.3 Z M12.75,9 L12.75,14.4 L11.25,14.4 L11.25,9 L12.75,9 Z" id="Combined-Shape" fill="#000000" fill-rule="nonzero"></path>
    </g>
</svg>