<svg xmlns="http://www.w3.org/2000/svg" width="28" height="28" viewBox="0 0 28 28">
    <defs>
        <filter id="rh6nxnhkga">
            <feColorMatrix in="SourceGraphic" values="0 0 0 0 0.000000 0 0 0 0 0.000000 0 0 0 0 0.000000 0 0 0 1.000000 0"/>
        </filter>
    </defs>
    <g fill="none" fill-rule="evenodd">
        <g>
            <g>
                <g filter="url(#rh6nxnhkga)" transform="translate(-312 -329) translate(15 306) translate(297 23)">
                    <path d="M0 0H28V28H0z"/>
                    <path fill="#000" fill-rule="nonzero" d="M12.316 11.495L7.182 6.36 4.116 9.422l.11.395c.93 3.328 2.702 6.36 5.146 8.801 2.444 2.442 5.473 4.217 8.799 5.156l.394.111 3.075-3.07-5.134-5.134-1.785 1.784-.216-.15c-.744-.52-1.442-1.105-2.087-1.746l-.19-.194c-.563-.587-1.082-1.218-1.551-1.885l-.148-.213 1.787-1.782zM7.181 8.339l3.154 3.155-1.594 1.59.299.474c.684 1.084 1.484 2.09 2.388 3 .915.91 1.926 1.713 3.016 2.396l.472.296 1.59-1.59 3.153 3.154-1.499 1.497-.083-.025c-2.909-.904-5.557-2.502-7.716-4.658l-.17-.172C8.119 15.33 6.582 12.74 5.71 9.902l-.022-.071 1.493-1.492zM14.7 7.525c2.96 0 5.365 2.37 5.424 5.314l.001.111h-1.75c0-1.996-1.592-3.621-3.575-3.674l-.1-.001v-1.75z"/>
                    <path fill="#000" fill-rule="nonzero" d="M14.7 4.025c2.367 0 4.637.94 6.31 2.614 1.637 1.636 2.572 3.841 2.614 6.15l.001.161h-1.75c0-1.903-.756-3.728-2.102-5.073-1.308-1.309-3.07-2.06-4.915-2.1l-.158-.002v-1.75z"/>
                </g>
            </g>
        </g>
    </g>
</svg>
