<?xml version="1.0" encoding="utf-8"?>
<!-- Generator: Adobe Illustrator 25.1.0, SVG Export Plug-In . SVG Version: 6.00 Build 0)  -->
<svg version="1.1" id="레이어_1" xmlns="http://www.w3.org/2000/svg" xmlns:xlink="http://www.w3.org/1999/xlink" x="0px"
	 y="0px" viewBox="0 0 24 24" style="enable-background:new 0 0 24 24;" xml:space="preserve">
<style type="text/css">
	.st0{fill:none;}
</style>
<g id="background_1_">
	<rect class="st0" width="24" height="24"/>
</g>
<g>
	<path d="M12,21.4l-8.3-9.2c-0.8-1-1.3-2.2-1.3-3.5c0-2.8,2.3-5,5-5c1.9,0,3.6,1.1,4.6,2.8c0.8-1.7,2.5-2.8,4.6-2.8c2.8,0,5,2.3,5,5
		c0,1.3-0.5,2.5-1.3,3.4L12,21.4z M7.4,4.8c-2,0-3.8,1.8-3.8,3.8c0,1,0.4,1.9,1,2.6l7.4,8.2l7.4-8.2c0.6-0.7,1-1.6,1-2.6
		c0-2-1.8-3.8-3.8-3.8s-3.8,1.8-3.8,3.8h-1.2C11.4,6.6,9.6,4.8,7.4,4.8z"/>
</g>
</svg>
