<?xml version="1.0" encoding="UTF-8"?>
<svg width="32px" height="20px" viewBox="0 0 32 20" version="1.1" xmlns="http://www.w3.org/2000/svg" xmlns:xlink="http://www.w3.org/1999/xlink">
    <title>xxxhdpi/eliment / cmm_lanking_new</title>
    <g id="eliment-/-cmm_lanking_new" stroke="none" stroke-width="1" fill="none" fill-rule="evenodd">
        <g id="background">
            <rect id="Rectangle" x="0" y="0" width="32" height="20"></rect>
        </g>
        <path d="M7.1328125,14 L7.1328125,9.48828125 C7.4140625,8.96875 7.84179688,8.70898438 8.41601562,8.70898438 C8.81054688,8.70898438 9.09472656,8.80566406 9.26855469,8.99902344 C9.44238281,9.19238281 9.52929688,9.49023438 9.52929688,9.89257812 L9.52929688,9.89257812 L9.52929688,14 L10.953125,14 L10.953125,9.81054688 C10.9296875,8.29882812 10.2578125,7.54296875 8.9375,7.54296875 C8.17578125,7.54296875 7.56054688,7.82617188 7.09179688,8.39257812 L7.09179688,8.39257812 L7.05078125,7.66015625 L5.70898438,7.66015625 L5.70898438,14 L7.1328125,14 Z M15.1953125,14.1171875 C15.7226562,14.1171875 16.1982422,14.0126953 16.6220703,13.8037109 C17.0458984,13.5947266 17.3847656,13.3007812 17.6386719,12.921875 L17.6386719,12.921875 L16.8710938,12.1894531 C16.4609375,12.7167969 15.9296875,12.9804688 15.2773438,12.9804688 C14.8125,12.9804688 14.4267578,12.828125 14.1201172,12.5234375 C13.8134766,12.21875 13.6386719,11.8046875 13.5957031,11.28125 L13.5957031,11.28125 L17.7382812,11.28125 L17.7382812,10.7070312 C17.7382812,9.69921875 17.5029297,8.91992188 17.0322266,8.36914062 C16.5615234,7.81835938 15.8945312,7.54296875 15.03125,7.54296875 C14.4882812,7.54296875 13.9960938,7.68164062 13.5546875,7.95898438 C13.1132812,8.23632812 12.7705078,8.62402344 12.5263672,9.12207031 C12.2822266,9.62011719 12.1601562,10.1855469 12.1601562,10.8183594 L12.1601562,10.8183594 L12.1601562,10.9941406 C12.1601562,11.9394531 12.4404297,12.6962891 13.0009766,13.2646484 C13.5615234,13.8330078 14.2929688,14.1171875 15.1953125,14.1171875 Z M16.3320312,10.2382812 L13.6191406,10.2382812 C13.6855469,9.75 13.8388672,9.36914062 14.0791016,9.09570312 C14.3193359,8.82226562 14.6347656,8.68554688 15.0253906,8.68554688 C15.4199219,8.68554688 15.7285156,8.80761719 15.9511719,9.05175781 C16.1738281,9.29589844 16.3007812,9.65625 16.3320312,10.1328125 L16.3320312,10.1328125 L16.3320312,10.2382812 Z M21.2128906,14 L22.5488281,9.64648438 L23.9082031,14 L25.0800781,14 L26.8085938,7.66015625 L25.4199219,7.66015625 L24.4121094,12.0371094 L23.09375,7.66015625 L22.0214844,7.66015625 L20.7207031,11.9902344 L19.6953125,7.66015625 L18.3066406,7.66015625 L20.0410156,14 L21.2128906,14 Z" id="new" fill="#000000" fill-rule="nonzero"></path>
    </g>
</svg>