<?xml version="1.0" encoding="UTF-8"?>
<svg width="24px" height="24px" viewBox="0 0 24 24" version="1.1" xmlns="http://www.w3.org/2000/svg" xmlns:xlink="http://www.w3.org/1999/xlink">
    <title>03. tokens/Icon/m/type : questionmark_circle</title>
    <g id="03.-tokens/Icon/m/type-:-questionmark_circle" stroke="none" stroke-width="1" fill="none" fill-rule="evenodd">
        <rect id="background" x="0" y="0" width="24" height="24"></rect>
        <path d="M12,2.25 C17.3847763,2.25 21.75,6.61522369 21.75,12 C21.75,17.3847763 17.3847763,21.75 12,21.75 C6.61522369,21.75 2.25,17.3847763 2.25,12 C2.25,6.61522369 6.61522369,2.25 12,2.25 Z M12,3.75 C7.44365081,3.75 3.75,7.44365081 3.75,12 C3.75,16.5563492 7.44365081,20.25 12,20.25 C16.5563492,20.25 20.25,16.5563492 20.25,12 C20.25,7.44365081 16.5563492,3.75 12,3.75 Z M11.808,15.561 C12.3050563,15.561 12.708,15.9639437 12.708,16.461 C12.708,16.9580563 12.3050563,17.361 11.808,17.361 C11.3109437,17.361 10.908,16.9580563 10.908,16.461 C10.908,15.9639437 11.3109437,15.561 11.808,15.561 Z M14.7000368,9.26225907 C14.7015644,9.7994773 14.5302017,10.3219982 14.2127491,10.7530796 L13.6904999,11.439587 L12.336,13.23 L12.336,14.265 L11.136,14.265 L11.136,13.1109 L11.133081,13.0745049 C11.1299674,13.0011921 11.1393082,12.9274754 11.1611035,12.8565862 L11.1797851,12.804 L11.2094713,12.7306138 L13.2145483,10.083096 C13.4001471,9.85118576 13.5008725,9.56278187 13.5004225,9.28629455 C13.4703532,8.47761839 12.7923463,7.84532139 11.9665167,7.87199472 C11.2628388,7.87494629 10.651079,8.34713143 10.4661035,9.02017879 L10.4490409,9.08814313 L9.27895905,8.82185687 C9.55812828,7.59516624 10.6291491,6.71548009 11.8637148,6.67384081 L11.9444554,6.67231841 C13.4135012,6.62443975 14.6449785,7.7728931 14.7000368,9.26225907 Z" id="Combined-Shape" fill="#000000" fill-rule="nonzero"></path>
    </g>
</svg>