<?xml version="1.0" encoding="UTF-8"?>
<svg width="24px" height="24px" viewBox="0 0 24 24" version="1.1" xmlns="http://www.w3.org/2000/svg" xmlns:xlink="http://www.w3.org/1999/xlink">
    <title>03. tokens/Icon/m/type : chat_counselling</title>
    <g id="03.-tokens/Icon/m/type-:-chat_counselling" stroke="none" stroke-width="1" fill="none" fill-rule="evenodd">
        <rect id="background" x="0" y="0" width="24" height="24"></rect>
        <path d="M21.75,3.45 L21.75,18.45 L6.8268,18.45 L2.25,21.5013878 L2.25,3.45 L21.75,3.45 Z M20.25,4.95 L3.75,4.95 L3.75,18.6984 L6.37291827,16.95 L20.25,16.95 L20.25,4.95 Z M8.22,9.804 C8.79989899,9.804 9.27,10.2794736 9.27,10.866 C9.27,11.4525264 8.79989899,11.928 8.22,11.928 C7.64010101,11.928 7.17,11.4525264 7.17,10.866 C7.17,10.2794736 7.64010101,9.804 8.22,9.804 Z M12,9.804 C12.579899,9.804 13.05,10.2794736 13.05,10.866 C13.05,11.4525264 12.579899,11.928 12,11.928 C11.420101,11.928 10.95,11.4525264 10.95,10.866 C10.95,10.2794736 11.420101,9.804 12,9.804 Z M15.78,9.804 C16.359899,9.804 16.83,10.2794736 16.83,10.866 C16.83,11.4525264 16.359899,11.928 15.78,11.928 C15.200101,11.928 14.73,11.4525264 14.73,10.866 C14.73,10.2794736 15.200101,9.804 15.78,9.804 Z" id="Combined-Shape" fill="#000000" fill-rule="nonzero"></path>
    </g>
</svg>