<svg id="Layer_1" data-name="Layer 1" xmlns="http://www.w3.org/2000/svg" viewBox="0 0 24 24"><defs><style>.cls-1{fill:none;}</style></defs><rect id="Rectangle" class="cls-1" width="24" height="24"/><path d="M16.8,2.4H7.2A4.8141,4.8141,0,0,0,2.4,7.2v9.6a4.8141,4.8141,0,0,0,4.8,4.8h9.6a4.8141,4.8141,0,0,0,4.8-4.8V7.2A4.8141,4.8141,0,0,0,16.8,2.4Zm3.6,14.4a3.5357,3.5357,0,0,1-3.6,3.6H7.2a3.5357,3.5357,0,0,1-3.6-3.6V7.2A3.5357,3.5357,0,0,1,7.2,3.6h9.6a3.5357,3.5357,0,0,1,3.6,3.6Z"/><path d="M12,6a6,6,0,1,0,6,6A5.9417,5.9417,0,0,0,12,6Zm0,10.8A4.8,4.8,0,1,1,16.8,12,4.8141,4.8141,0,0,1,12,16.8Z"/><path d="M12,8.4V9.6A2.4071,2.4071,0,0,0,9.6,12H8.4A3.5357,3.5357,0,0,1,12,8.4Z"/></svg>