<svg id="레이어_1" data-name="레이어 1" xmlns="http://www.w3.org/2000/svg" viewBox="0 0 24 24"><defs><style>.cls-1{fill:none;}</style></defs><path d="M17.0348,7.2a2.5833,2.5833,0,0,0-.07-2.8535A2.5594,2.5594,0,0,0,13.39,3.7213a3.4056,3.4056,0,0,0-1.1507,1.8269L12,6.2177l-.2391-.67A3.4056,3.4056,0,0,0,10.61,3.7213a2.5594,2.5594,0,0,0-3.5754.6252A2.5837,2.5837,0,0,0,6.9649,7.2H3.6V12H4.8v8.4023L19.2,20.4V12h1.2V7.2ZM13.3723,5.9449a2.3942,2.3942,0,0,1,.71-1.2439,1.36,1.36,0,0,1,1.9008.3334A1.38,1.38,0,0,1,15.65,6.951a1.3422,1.3422,0,0,1-.7559.249h-1.97ZM8.3484,6.95a1.38,1.38,0,0,1-.3316-1.916A1.3609,1.3609,0,0,1,8.9,4.4719a1.3982,1.3982,0,0,1,.2355-.0205,1.35,1.35,0,0,1,.7817.25,2.3942,2.3942,0,0,1,.71,1.2439L11.0754,7.2H9.1125A1.35,1.35,0,0,1,8.3484,6.95ZM4.8,8.4h6.6v2.4H4.8ZM6,12h5.4v7.2013l-5.4.001Zm12,7.2-5.4.001V12H18Zm1.2-8.4H12.6V8.4h6.6Z"/><rect class="cls-1" width="24" height="24"/></svg>