<?xml version="1.0" encoding="utf-8"?>
<!-- Generator: Adobe Illustrator 25.1.0, SVG Export Plug-In . SVG Version: 6.00 Build 0)  -->
<svg version="1.1" id="레이어_1" xmlns="http://www.w3.org/2000/svg" xmlns:xlink="http://www.w3.org/1999/xlink" x="0px"
	 y="0px" viewBox="0 0 24 24" style="enable-background:new 0 0 24 24;" xml:space="preserve">
<style type="text/css">
	.st0{fill:none;}
</style>
<g>
	<path class="st0" d="M0,0h24v24H0V0z"/>
	<path d="M8.4,21.6c-1.3,0-2.4-1.1-2.4-2.4s1.1-2.4,2.4-2.4s2.4,1.1,2.4,2.4C10.8,20.5,9.7,21.6,8.4,21.6z M8.4,18
		c-0.7,0-1.2,0.5-1.2,1.2s0.5,1.2,1.2,1.2s1.2-0.5,1.2-1.2C9.6,18.5,9.1,18,8.4,18z"/>
	<path d="M18,21.6c-1.3,0-2.4-1.1-2.4-2.4s1.1-2.4,2.4-2.4s2.4,1.1,2.4,2.4S19.3,21.6,18,21.6z M18,18c-0.7,0-1.2,0.5-1.2,1.2
		s0.5,1.2,1.2,1.2s1.2-0.5,1.2-1.2S18.7,18,18,18z"/>
	<path d="M20.3,7.1l-0.4,1.3H6.4L5,3.6H1.2v1.2h2.9l3.2,10.8h11.8l2.4-8.3L20.3,7.1z M18,14.4H8.2L6.8,9.6h12.7L18,14.4z"/>
</g>
</svg>
