<?xml version="1.0" encoding="UTF-8"?>
<svg width="24px" height="24px" viewBox="0 0 24 24" version="1.1" xmlns="http://www.w3.org/2000/svg" xmlns:xlink="http://www.w3.org/1999/xlink">
    <title>03. tokens/Icon/m/type : megaphone</title>
    <g id="03.-tokens/Icon/m/type-:-megaphone" stroke="none" stroke-width="1" fill="none" fill-rule="evenodd">
        <rect id="background" x="0" y="0" width="24" height="24"></rect>
        <path d="M20.55,4.13342992 L20.55,19.2908 L13.049,17.1744299 L13.05,17.199 C13.05,18.7730115 11.7740115,20.049 10.2,20.049 C8.65312659,20.049 7.39408819,18.8166318 7.35113291,17.2801436 L7.35,17.199 L7.35,15.7494299 L3.45,15.75 L3.45,7.35 L8.005,7.34942992 L20.55,4.13342992 Z M8.85,15.9904299 L8.85,17.199 C8.85,17.9445844 9.45441559,18.549 10.2,18.549 C10.924282,18.549 11.5153467,17.978629 11.5485306,17.2625507 L11.55,17.199 L11.549,16.7514299 L8.85,15.9904299 Z M19.05,6.0663 L8.85,8.6817 L8.85,14.4321 L19.05,17.3091 L19.05,6.0663 Z M7.35,8.84942992 L4.95,8.85 L4.95,14.25 L7.35,14.2494299 L7.35,8.84942992 Z" id="Combined-Shape" fill="#000000" fill-rule="nonzero"></path>
    </g>
</svg>