<svg id="레이어_1" data-name="레이어 1" xmlns="http://www.w3.org/2000/svg" viewBox="0 0 24 24"><defs><style>.cls-1{fill-rule:evenodd;}.cls-2{fill:none;}</style></defs><path d="M16.7156,6.4184l-.77-2.9473H8.0537l-.77,2.9473H2.1855V20.9566h19.629V6.4184ZM8.9807,4.6711h6.0386l.4567,1.7473H8.524ZM20.6145,19.7566H3.3855V7.6184h17.229Z"/><path d="M11.9994,17.7105a4.0232,4.0232,0,1,1,4.0647-4.0224A4.0484,4.0484,0,0,1,11.9994,17.7105Zm0-6.846a2.8233,2.8233,0,1,0,2.8647,2.8236A2.8475,2.8475,0,0,0,11.9994,10.8645Z"/><path d="M10.9348,13.6846h-1.2a2.2565,2.2565,0,0,1,2.264-2.2442v1.2A1.0554,1.0554,0,0,0,10.9348,13.6846Z"/><path class="cls-1" d="M18.521,10.5049a.8431.8431,0,1,1-.8435-.8332.8385.8385,0,0,1,.8435.8332"/><rect class="cls-2" width="24" height="24"/></svg>