<svg xmlns="http://www.w3.org/2000/svg" width="16" height="16" viewBox="0 0 16 16">
    <defs>
        <filter id="2jrgm7guha">
            <feColorMatrix in="SourceGraphic" values="0 0 0 0 0.674510 0 0 0 0 0.674510 0 0 0 0 0.674510 0 0 0 1.000000 0"/>
        </filter>
        <filter id="8w3gucmt3b">
            <feColorMatrix in="SourceGraphic" values="0 0 0 0 0.000000 0 0 0 0 0.000000 0 0 0 0 0.000000 0 0 0 1.000000 0"/>
        </filter>
    </defs>
    <g fill="none" fill-rule="evenodd">
        <g filter="url(#2jrgm7guha)" transform="translate(-1041 -195)">
            <g filter="url(#8w3gucmt3b)" transform="translate(1041 195)">
                <path d="M0 0L16 0 16 16 0 16z" transform="rotate(90 8 8)"/>
                <path fill="#000" fill-rule="nonzero" d="M8 14.4c-3.52 0-6.4-2.88-6.4-6.4 0-3.52 2.88-6.4 6.4-6.4 3.52 0 6.4 2.88 6.4 6.4 0 3.52-2.88 6.4-6.4 6.4zm0-12C4.88 2.4 2.4 4.88 2.4 8c0 3.12 2.48 5.6 5.6 5.6 3.12 0 5.6-2.48 5.6-5.6 0-3.12-2.48-5.6-5.6-5.6z"/>
                <path fill="#000" fill-rule="nonzero" d="M6.88 11.12L6.32 10.48 8.8 8 6.32 5.52 6.88 4.88 10 8z"/>
            </g>
        </g>
    </g>
</svg>
