<svg id="Layer_1" data-name="Layer 1" xmlns="http://www.w3.org/2000/svg" viewBox="0 0 24 24"><defs><style>.cls-1{fill:none;}</style></defs><rect id="Rectangle" class="cls-1" width="24" height="24"/><path d="M19.2,12H18A6,6,0,0,1,6,12H4.8a7.22,7.22,0,0,0,6.6,7.1694V21.6h1.2V19.1694A7.22,7.22,0,0,0,19.2,12Z" transform="translate(0 0)"/><path id="Shape" d="M12,16.8A4.8141,4.8141,0,0,1,7.2,12V7.2a4.8,4.8,0,0,1,9.6,0V12A4.8141,4.8141,0,0,1,12,16.8ZM12,3.6A3.5357,3.5357,0,0,0,8.4,7.2V12A3.5357,3.5357,0,0,0,12,15.6,3.5357,3.5357,0,0,0,15.6,12V7.2A3.5357,3.5357,0,0,0,12,3.6Z" transform="translate(0 0)"/></svg>