<svg id="Layer_1" data-name="Layer 1" xmlns="http://www.w3.org/2000/svg" viewBox="0 0 24 24"><defs><style>.cls-1{fill:none;}</style></defs><polygon id="Path" points="3.6 8.4 2.4 8.4 2.4 3.6 7.2 3.6 7.2 4.8 3.6 4.8 3.6 8.4"/><polygon id="Path-2" data-name="Path" points="21.6 8.4 20.4 8.4 20.4 4.8 16.8 4.8 16.8 3.6 21.6 3.6 21.6 8.4"/><polygon id="Path-3" data-name="Path" points="21.6 20.4 16.8 20.4 16.8 19.2 20.4 19.2 20.4 15.6 21.6 15.6 21.6 20.4"/><polygon id="Path-4" data-name="Path" points="7.2 20.4 2.4 20.4 2.4 15.6 3.6 15.6 3.6 19.2 7.2 19.2 7.2 20.4"/><rect id="Rectangle" x="16.8" y="7.2" width="1.2" height="9.6"/><rect id="Rectangle-2" data-name="Rectangle" x="12" y="7.2" width="2.16" height="9.6"/><rect id="Rectangle-3" data-name="Rectangle" x="8.4" y="7.2" width="1" height="9.6"/><rect id="Rectangle-4" data-name="Rectangle" x="10.2" y="7.2" width="1" height="9.6"/><rect id="Rectangle-5" data-name="Rectangle" x="15" y="7.2" width="1" height="9.6"/><rect id="Rectangle-6" data-name="Rectangle" x="6" y="7.2" width="1.44" height="9.6"/><g id="background"><rect id="Rectangle-7" data-name="Rectangle" class="cls-1" width="24" height="24"/></g></svg>