<svg xmlns="http://www.w3.org/2000/svg" width="24" height="24" viewBox="0 0 24 24">
    <g fill="none" fill-rule="evenodd">
        <g>
            <g>
                <g>
                    <g>
                        <path fill="#000" fill-rule="nonzero" d="M12 15.9c-2.154 0-3.9-1.746-3.9-3.9S9.846 8.1 12 8.1s3.9 1.746 3.9 3.9c-.007 2.151-1.749 3.893-3.9 3.9zm0-6.6c-1.491 0-2.7 1.209-2.7 2.7s1.209 2.7 2.7 2.7 2.7-1.209 2.7-2.7-1.209-2.7-2.7-2.7z" transform="translate(-336.000000, -98.000000) translate(0.000000, 7.333300) translate(0.000000, 81.666700) translate(336.000000, 9.000000)"/>
                        <path fill="#000" fill-rule="nonzero" d="M14.532 21.6H9.456l-.432-1.296c-.409-1.187-1.64-1.883-2.868-1.62L4.8 18.96l-2.544-4.332.924-1.02c.824-.913.824-2.303 0-3.216L2.256 9.36 4.8 5.028l1.356.276c1.227.257 2.455-.436 2.868-1.62L9.456 2.4h5.076l.432 1.284c.413 1.184 1.64 1.877 2.868 1.62l1.368-.276 2.556 4.344-.936 1.02c-.817.912-.817 2.292 0 3.204l.936 1.032L19.2 18.96l-1.356-.276c-1.227-.257-2.455.436-2.868 1.62l-.444 1.296zm-4.212-1.2h3.348l.168-.48c.602-1.756 2.42-2.786 4.236-2.4l.516.108 1.668-2.844-.336-.384c-1.222-1.367-1.222-3.433 0-4.8l.336-.36-1.668-2.868-.516.108c-1.816.386-3.634-.644-4.236-2.4l-.168-.48H10.32l-.168.468c-.607 1.752-2.421 2.78-4.236 2.4L5.4 6.372 3.744 9.216l.324.384c1.222 1.367 1.222 3.433 0 4.8l-.324.36L5.4 17.616l.516-.108c1.815-.38 3.63.648 4.236 2.4l.168.492z" transform="translate(-336.000000, -98.000000) translate(0.000000, 7.333300) translate(0.000000, 81.666700) translate(336.000000, 9.000000)"/>
                        <path d="M0 0H24V24H0z" transform="translate(-336.000000, -98.000000) translate(0.000000, 7.333300) translate(0.000000, 81.666700) translate(336.000000, 9.000000)"/>
                    </g>
                </g>
            </g>
        </g>
    </g>
</svg>
