<?xml version="1.0" encoding="UTF-8"?>
<svg width="18px" height="18px" viewBox="0 0 18 18" version="1.1" xmlns="http://www.w3.org/2000/svg" xmlns:xlink="http://www.w3.org/1999/xlink">
    <title>checkbox_off</title>
    <g id="Page-1" stroke="none" stroke-width="1" fill="none" fill-rule="evenodd">
        <g id="checkbox_off">
            <path d="M14.9998,-0.0002 L2.9998,-0.0002 C1.3428,-0.0002 -0.0002,1.3428 -0.0002,2.9998 L-0.0002,14.9998 C-0.0002,16.6568 1.3428,17.9998 2.9998,17.9998 L14.9998,17.9998 C16.6568,17.9998 17.9998,16.6568 17.9998,14.9998 L17.9998,2.9998 C17.9998,1.3428 16.6568,-0.0002 14.9998,-0.0002" id="Fill-1" fill="#969696"></path>
            <path d="M14.9998,0.9998 C16.1028,0.9998 16.9998,1.8968 16.9998,2.9998 L16.9998,14.9998 C16.9998,16.1028 16.1028,16.9998 14.9998,16.9998 L2.9998,16.9998 C1.8968,16.9998 0.9998,16.1028 0.9998,14.9998 L0.9998,2.9998 C0.9998,1.8968 1.8968,0.9998 2.9998,0.9998 L14.9998,0.9998" id="Fill-4" fill="#FFFFFF"></path>
        </g>
    </g>
</svg>